<?xml version="1.0" standalone="no"?>
<!DOCTYPE svg PUBLIC "-//W3C//DTD SVG 20010904//EN"
 "http://www.w3.org/TR/2001/REC-SVG-20010904/DTD/svg10.dtd">
<svg version="1.0" xmlns="http://www.w3.org/2000/svg"
 width="300.000000pt" height="300.000000pt" viewBox="0 0 300.000000 300.000000"
 preserveAspectRatio="xMidYMid meet">
<metadata>
Created by potrace 1.10, written by Peter Selinger 2001-2011
</metadata>
<g transform="translate(0.000000,300.000000) scale(0.100000,-0.100000)"
fill="#ffffff" stroke="none">
<path d="M1345 2991 c-356 -42 -648 -183 -901 -435 -224 -225 -354 -469 -416
-779 -31 -158 -31 -396 0 -554 62 -310 192 -554 416 -779 225 -224 469 -354
779 -416 158 -31 396 -31 554 0 310 62 554 192 779 416 224 225 354 469 416
779 31 158 31 396 0 554 -62 310 -192 554 -416 779 -223 223 -471 356 -772
414 -119 23 -333 33 -439 21z m377 -150 c152 -27 254 -60 390 -129 265 -135
465 -335 600 -600 69 -136 102 -238 129 -390 35 -205 18 -437 -46 -639 -14
-44 -51 -132 -83 -195 -135 -265 -335 -465 -600 -600 -136 -69 -238 -102 -390
-129 -278 -47 -559 -6 -817 121 -543 267 -846 853 -746 1442 27 152 60 254
129 390 138 272 342 473 617 608 257 126 539 168 817 121z"/>
<path d="M703 2318 c-101 -100 -183 -184 -183 -187 0 -3 48 -55 108 -115 59
-61 199 -205 311 -320 l203 -209 -134 -136 c-73 -75 -212 -216 -308 -314 -96
-98 -176 -181 -178 -186 -1 -5 80 -90 180 -190 l183 -181 39 43 c22 23 161
165 309 315 l270 274 311 -311 311 -311 182 182 182 183 -72 75 c-40 42 -177
184 -305 318 -129 133 -232 246 -230 251 1 4 139 147 305 317 l303 309 -183
183 -182 184 -308 -314 -308 -313 -312 318 -312 317 -182 -182z"/>
</g>
</svg>
